<svg xmlns="http://www.w3.org/2000/svg" viewBox="0 0 16 16">
  <!-- Horizonte de Eventos -->
  <circle cx="8" cy="8" r="3" fill="currentColor"/>
  <!-- Disco de Acreção Estilizado -->
  <path fill="currentColor" d="M8 1C4.134 1 1 4.134 1 8c0 1.25.33 2.42.9 3.44l1.35-.78A5.5 5.5 0 0 1 2.5 8c0-3.038 2.462-5.5 5.5-5.5s5.5 2.462 5.5 5.5-2.462 5.5-5.5 5.5a5.48 5.48 0 0 1-2.43-.57l-1.35.78A6.97 6.97 0 0 0 8 15c3.866 0 7-3.134 7-7s-3.134-7-7-7z"/>
  <!-- Detalhe da distorção -->
  <path fill="currentColor" d="M11.5 8a3.5 3.5 0 0 1-3.5 3.5 3.48 3.48 0 0 1-1.55-.36l-.87.5a4.5 4.5 0 0 0 5.92-5.92l-.87.5c.23.4.37.87.37 1.28z"/>
</svg>